<svg width="50" height="50" viewBox="0 0 50 50" fill="none" xmlns="http://www.w3.org/2000/svg">
<path fill-rule="evenodd" clip-rule="evenodd" d="M12.5 8.33332C12.5 10.6345 10.6345 12.5 8.33334 12.5C6.03215 12.5 4.16667 10.6345 4.16667 8.33332C4.16667 6.03214 6.03215 4.16666 8.33334 4.16666C10.6345 4.16666 12.5 6.03214 12.5 8.33332ZM4.16668 17.7083H12.5V45.8333H4.16668V17.7083ZM18.75 17.7083H27.0833V19.4613C28.3866 19.0006 29.789 18.75 31.25 18.75C38.1536 18.75 43.75 24.3464 43.75 31.25V45.8333H35.4167V31.25C35.4167 28.9488 33.5512 27.0833 31.25 27.0833C28.9488 27.0833 27.0833 28.9488 27.0833 31.25V45.8333H18.75V31.25V17.7083Z" fill="white"/>
</svg>
